<?xml version="1.0" encoding="UTF-8" standalone="no"?>
<!DOCTYPE svg PUBLIC "-//W3C//DTD SVG 20010904//EN" "http://www.w3.org/TR/2001/REC-SVG-20010904/DTD/svg10.dtd">
<svg version="1.0" xmlns="http://www.w3.org/2000/svg" width="846.000000pt" height="1280.000000pt" viewBox="0 0 846.000000 1280.000000" preserveAspectRatio="xMidYMid meet">
<g transform="translate(0.000000,1280.000000) scale(0.100000,-0.100000)" fill="#000000" stroke="none">
<path d="M5039 12796 c-2 -3 -38 -12 -79 -20 -142 -30 -299 -125 -385 -233 -54 -68 -117 -195 -136 -273 -19 -78 -16 -250 5 -330 64 -238 266 -433 501 -485 117 -26 274 -17 381 23 197 72 340 217 411 414 38 106 44 282 14 393 -35 127 -83 208 -180 305 -103 102 -187 148 -336 185 -90 22 -184 32 -196 21z m182 -276 c235 -73 360 -325 275 -558 -35 -98 -119 -185 -225 -236 -62 -29 -73 -31 -176 -31 -104 0 -114 2 -178 33 -115 57 -199 160 -233 287 -58 214 84 449 306 511 68 19 160 17 231 -6z"/>
<path d="M4195 12459 c-528 -83 -815 -188 -1193 -437 -415 -272 -718 -643 -802 -979 -74 -301 -36 -624 117 -983 83 -193 150 -304 295 -487 272 -342 640 -584 973 -638 112 -19 304 -19 370 -1 249 66 312 259 173 530 -32 63 -63 102 -137 177 -116 116 -200 172 -486 324 -282 149 -369 207 -481 319 -146 147 -203 288 -204 499 0 210 61 382 210 589 68 96 310 332 446 436 147 114 572 412 686 482 107 66 184 126 209 162 l20 28 -38 -1 c-21 -1 -92 -10 -158 -20z"/>
<path d="M5845 11001 c-102 -17 -183 -43 -280 -90 -256 -125 -445 -347 -526 -616 -30 -100 -37 -303 -15 -414 38 -187 126 -349 266 -491 146 -148 305 -234 509 -275 114 -24 324 -16 436 14 355 99 598 340 700 696 50 176 42 336 -26 533 -42 118 -79 185 -156 282 -137 171 -313 283 -534 339 -93 24 -290 35 -374 22z"/>
<path d="M6524 8214 c-53 -19 -152 -99 -178 -144 -16 -27 -21 -52 -20 -110 1 -119 46 -205 218 -409 95 -112 246 -240 473 -401 296 -209 410 -298 516 -399 124 -120 127 -124 90 -163 -172 -183 -662 -494 -1358 -862 -153 -81 -231 -116 -330 -147 -143 -46 -209 -75 -200 -89 10 -16 405 -12 545 5 234 29 688 112 926 170 338 82 649 207 851 342 102 68 237 207 290 298 60 102 119 282 110 337 -7 50 -42 167 -65 219 -58 131 -201 323 -381 511 -295 308 -798 683 -1061 791 -153 63 -332 84 -426 51z"/>
<path d="M3075 6654 c-223 -49 -425 -178 -709 -454 -245 -238 -476 -517 -835 -1009 -227 -310 -325 -484 -403 -712 -40 -116 -43 -131 -43 -234 0 -100 2 -115 27 -161 67 -126 208 -190 403 -182 175 8 297 72 518 272 179 163 697 682 818 821 257 295 469 578 605 807 130 220 205 514 162 639 -26 78 -61 104 -253 186 -97 42 -186 50 -290 27z"/>
<path d="M4205 5803 c-145 -30 -334 -123 -487 -238 -172 -130 -324 -298 -574 -632 -558 -747 -886 -1243 -2267 -3433 -297 -470 -580 -927 -630 -1015 -157 -275 -239 -446 -224 -462 17 -17 125 69 210 167 199 230 508 525 927 886 240 207 283 248 959 908 326 320 737 721 912 891 556 540 863 875 1164 1270 303 397 473 690 576 996 41 121 51 281 24 374 -39 134 -92 206 -184 248 -125 56 -266 70 -406 40z"/>
</g>
<script xmlns=""/></svg>